<?xml version="1.0" encoding="utf-8"?>
<!-- Generator: Adobe Illustrator 24.2.1, SVG Export Plug-In . SVG Version: 6.00 Build 0)  -->
<svg version="1.1" id="图层_1" xmlns="http://www.w3.org/2000/svg" xmlns:xlink="http://www.w3.org/1999/xlink" x="0px" y="0px"
	 viewBox="0 0 568.4 512" style="enable-background:new 0 0 568.4 512;" xml:space="preserve">
<style type="text/css">
	.st0{fill:url(#SVGID_1_);}
	.st1{fill:#FFBD88;}
	.st2{fill:#F757AF;}
	.st3{fill:#AB8EEB;}
</style>
<g>
	<g>
		
			<linearGradient id="SVGID_1_" gradientUnits="userSpaceOnUse" x1="179.3275" y1="297.6792" x2="437.9368" y2="39.0307" gradientTransform="matrix(1 0 0 -1 0 413.1169)">
			<stop  offset="0" style="stop-color:#FFB2C2"/>
			<stop  offset="1" style="stop-color:#F85E8A"/>
		</linearGradient>
		<path class="st0" d="M339.5,170.1c5.8-32.6-8.2-46.1-37.9-48.3c-29.8-2.2-51.1,16.4-51.1,82.5s1.5,118.9,27.1,139.8
			s93.8,15.7,121.3,11.8c27.5-3.9,52.3,6.2,23.6,33.6c-39.2,37.5-107.7,45.5-180.4,26c-104-27.9-160.8-127.9-112.5-230.7
			C182.4,72.3,304,31,416.9,89c106.7,54.9,54.3,165.9,30.2,192.6c-25.2,28-102.9,28.3-116.1,8.4C315.1,266.1,332.9,208,339.5,170.1z
			"/>
		<path class="st1" d="M242.1,415.4c-28-7.3-54-20.9-75.9-39.7c52.6,115.5,251.5,82.6,245.8,47.1c-0.9-5.8-5.7-11-13.1-15.9
			C358.7,428.7,301.9,431.5,242.1,415.4z"/>
		<path class="st1" d="M153.9,324.2c0.9,17.8,5,35.2,12.2,51.5c21.9,18.9,47.9,32.5,75.9,39.7c59.8,16,116.6,13.4,156.9-8.8
			c-24.5-16.3-77-29.9-111.3-56.4c-3.7-1.6-7.1-3.7-10.3-6.2c-8.7-7-14.6-17.7-18.6-31.4c-1.2-3.3-2-6.7-2.6-10.2
			c-5.5-25.7-5.8-59.7-5.8-98.2c0-66.2,21.5-84.8,51.3-82.4c13.6,1,23.9,4.4,30.5,10.9C310,97.1,141.5,127.3,153.9,324.2z"/>
		<path class="st2" d="M285.2,64.8c-60.5-22.8-128.8-0.4-164.2,53.7c-24.6,37.5-24.9,80.2-7.2,119.3c2.6-18.4,8-36.3,16-53.1
			C161.8,116.2,219.5,74.1,285.2,64.8z"/>
		<path class="st2" d="M285.2,64.8c-65.7,9.3-123.4,51.3-155.6,119.9c-8,16.8-13.4,34.7-16,53.1c34.8,76.3,138.2,138.6,263.4,120.3
			c-32.3,2.5-79.3,2.3-99.6-14.2c-25.7-20.7-27-73.4-27-139.6s21.5-84.8,51.3-82.4c29.7,2.4,43.7,15.7,37.9,48.3
			c-1.2,6.7-2.7,14-4.3,21.5C363.7,129.8,333.1,83.5,285.2,64.8z"/>
		<path class="st3" d="M453.1,115.3c28.2,29.2,31.8,65.1,25.8,96.6c12.3-7.4,20.9-17,23-30C506.3,155.2,485.6,130.7,453.1,115.3z"/>
		<path class="st3" d="M453.1,115.3c-47.5-22.7-120.3-26.1-176.1,11.1c7.5-3.9,16-5.5,24.4-4.6c29.8,2.2,43.7,15.7,37.9,48.3
			c-6.6,37.9-24.3,96-8.4,120c-17.1-53.4,97.1-47.5,148-78.2C484.9,180.4,481.3,144.5,453.1,115.3z"/>
		<path class="st2" d="M441.1,335.9c-3.3,9.9,57.2,41,64.5,19C513,333,444.4,326,441.1,335.9z M106.1,272.2
			c4.1,7.8-19.2,28.4-28.4,11C68.4,265.8,102,264.4,106.1,272.2z"/>
		<path class="st3" d="M452.5,314.5c-5.8,10.2,26.5,10.3,26.7-1.8C479.5,300.5,456.3,308,452.5,314.5z M455.2,95.2
			c13.5-4.9,3.1-21.4-6.2-10.5C443.6,90.9,447.8,97.8,455.2,95.2z"/>
		<path class="st1" d="M103,255.3c-8.2,4.9-26.6,7.8-36.8-0.3c-8.7-6.8-5-36.1,28.3-16.4C113.6,249.9,107,252.9,103,255.3z"/>
	</g>
</g>
</svg>
